<svg xmlns="http://www.w3.org/2000/svg" version="1.1" xmlns:xlink="http://www.w3.org/1999/xlink" xmlns:svgjs="http://svgjs.dev/svgjs" width="1500" height="1500" viewBox="0 0 1500 1500"><rect width="1500" height="1500" fill="#000000"></rect><g transform="matrix(0.6666666666666666,0,0,0.6666666666666666,249.39499766530446,463.59760589414685)"><svg viewBox="0 0 396 227" data-background-color="#ffffff" preserveAspectRatio="xMidYMid meet" height="859" width="1500" xmlns="http://www.w3.org/2000/svg" xmlns:xlink="http://www.w3.org/1999/xlink"><g id="tight-bounds" transform="matrix(1,0,0,1,0.24041907546052244,0.027375079211907405)"><svg viewBox="0 0 395.52 226.94524984157619" height="226.94524984157619" width="395.52"><g><svg viewBox="0 0 395.52 226.94524984157619" height="226.94524984157619" width="395.52"><g transform="matrix(1,0,0,1,0,141.50133622294342)"><svg viewBox="0 0 395.52 85.44391361863276" height="85.44391361863276" width="395.52"><g id="textblocktransform"><svg viewBox="0 0 395.52 85.44391361863276" height="85.44391361863276" width="395.52" id="textblock"><g><svg viewBox="0 0 395.52 62.978178120462715" height="62.978178120462715" width="395.52"><g transform="matrix(1,0,0,1,0,0)"><svg width="395.52" viewBox="0.18458371740724727 -28.30925201070206 277.8191716677738 44.236784805383664" height="62.978178120462715" data-palette-color="#0063db"><path d="M13.354 15.826v0c-1.755 0.251-3.426 0.039-5.01-0.638v0c-1.565-0.679-2.877-1.707-3.937-3.084-1.058-1.371-1.718-2.973-1.98-4.808v0l-2.129-15.171c-0.258-1.802-0.078-3.491 0.539-5.067v0c0.615-1.59 1.581-2.933 2.898-4.031 1.318-1.098 2.865-1.773 4.64-2.027v0c1.802-0.258 3.467-0.055 4.997 0.609v0c1.55 0.667 2.853 1.68 3.909 3.037 1.056 1.358 1.714 2.947 1.975 4.769v0l0.318 2.227c0.019 0.132-0.034 0.207-0.16 0.225v0l-5.454 0.78c-0.125 0.018-0.198-0.039-0.217-0.172v0l-0.318-2.227c-0.154-1.076-0.636-1.95-1.446-2.622-0.804-0.68-1.728-0.945-2.77-0.796v0c-1.155 0.165-1.986 0.688-2.493 1.569-0.501 0.88-0.676 1.841-0.527 2.884v0l2.168 15.165c0.169 1.181 0.654 2.099 1.454 2.752 0.807 0.652 1.709 0.907 2.705 0.765v0c1.043-0.149 1.851-0.689 2.426-1.619 0.581-0.932 0.798-1.909 0.651-2.932v0l-0.323-2.257c-0.018-0.125 0.036-0.197 0.162-0.215v0l5.504-0.787c0.125-0.018 0.197 0.036 0.215 0.161v0l0.322 2.257c0.259 1.815 0.071 3.536-0.565 5.162v0c-0.659 1.609-1.637 2.965-2.934 4.066-1.298 1.095-2.838 1.769-4.62 2.025zM41.908 11.697v0l-15.757 1.894c-0.126 0.015-0.198-0.057-0.217-0.216v0l-3.97-33.435c-0.019-0.159 0.051-0.248 0.21-0.267v0l5.421-0.652c0.159-0.019 0.248 0.051 0.267 0.21v0l3.287 27.676 10.038-1.207c0.159-0.019 0.248 0.051 0.267 0.21v0l0.663 5.52c0.019 0.159-0.051 0.248-0.209 0.267zM54.016 11.004v0c-1.732 0.169-3.371-0.121-4.917-0.867v0c-1.533-0.748-2.813-1.826-3.841-3.233-1.027-1.4-1.627-2.99-1.801-4.768v0l-1.467-15.491c-0.176-1.811 0.103-3.483 0.838-5.015v0c0.72-1.544 1.768-2.828 3.141-3.852 1.38-1.025 2.927-1.621 4.639-1.788v0c1.785-0.174 3.426 0.105 4.924 0.837v0c1.518 0.736 2.784 1.799 3.797 3.187 1.006 1.389 1.596 2.979 1.77 4.771v0l1.558 15.482c0.173 1.778-0.096 3.449-0.809 5.012v0c-0.73 1.585-1.775 2.892-3.134 3.922-1.367 1.031-2.932 1.632-4.698 1.803zM53.443 5.112v0c0.989-0.096 1.809-0.581 2.46-1.455 0.658-0.875 0.939-1.813 0.842-2.815v0l-1.558-15.482c-0.105-1.082-0.536-1.961-1.291-2.637-0.756-0.683-1.662-0.974-2.718-0.871v0c-1.002 0.098-1.822 0.546-2.461 1.345-0.645 0.806-0.913 1.763-0.805 2.872v0l1.507 15.486c0.103 1.062 0.551 1.946 1.344 2.653 0.785 0.701 1.678 1.002 2.68 0.904zM75.185 9.226v0c-1.735 0.127-3.37-0.202-4.904-0.986v0c-1.515-0.785-2.759-1.894-3.733-3.327-0.98-1.426-1.535-3.03-1.665-4.811v0l-0.164-2.244c-0.013-0.18 0.06-0.275 0.22-0.287v0l5.495-0.401c0.126-0.009 0.196 0.076 0.21 0.255v0l0.164 2.244c0.078 1.064 0.504 1.958 1.278 2.684 0.774 0.719 1.664 1.042 2.668 0.968v0c1.024-0.075 1.863-0.534 2.516-1.377 0.661-0.837 0.953-1.774 0.878-2.811v0c-0.087-1.197-0.945-2.184-2.573-2.961v0c-0.264-0.141-0.608-0.313-1.03-0.516-0.423-0.203-0.924-0.434-1.504-0.692v0c-0.581-0.265-1.145-0.525-1.692-0.779-0.547-0.254-1.076-0.5-1.587-0.736v0c-1.865-0.92-3.288-2.143-4.269-3.669-0.987-1.519-1.552-3.266-1.696-5.24v0c-0.133-1.822 0.192-3.497 0.976-5.025v0c0.785-1.515 1.868-2.75 3.249-3.706 1.38-0.963 2.915-1.506 4.603-1.63v0c1.735-0.127 3.363 0.189 4.882 0.947v0c1.514 0.772 2.755 1.851 3.726 3.237 0.977 1.386 1.531 2.98 1.663 4.782v0l0.293 4.009c0.009 0.126-0.049 0.194-0.176 0.203v0l-5.505 0.402c-0.126 0.009-0.194-0.049-0.204-0.175v0l-0.342-4.006c-0.084-1.15-0.508-2.058-1.272-2.725-0.771-0.666-1.651-0.962-2.642-0.889v0c-1.004 0.073-1.837 0.519-2.499 1.335-0.662 0.817-0.955 1.754-0.878 2.812v0c0.078 1.064 0.372 1.938 0.883 2.622 0.505 0.685 1.386 1.309 2.644 1.873v0c0.131 0.057 0.439 0.195 0.923 0.413 0.477 0.219 1.01 0.464 1.597 0.736 0.595 0.271 1.13 0.512 1.607 0.725 0.483 0.212 0.773 0.338 0.87 0.378v0c1.689 0.792 3.057 1.815 4.105 3.069 1.047 1.254 1.642 2.845 1.782 4.772v0c0.136 1.862-0.174 3.565-0.93 5.112v0c-0.769 1.547-1.847 2.805-3.233 3.775-1.387 0.964-2.965 1.51-4.734 1.64zM103.832 7.059v0l-15.849 0.817c-0.127 0.007-0.194-0.07-0.202-0.23v0l-1.686-33.678c-0.007-0.127 0.053-0.193 0.18-0.199v0l15.749-0.812c0.127-0.007 0.194 0.07 0.202 0.23v0l0.283 5.483c0.007 0.127-0.053 0.193-0.18 0.199v0l-10.047 0.518 0.395 7.66 10.046-0.518c0.127-0.007 0.193 0.053 0.2 0.18v0l0.336 5.55c0.007 0.127-0.053 0.193-0.18 0.199v0l-10.097 0.521 0.442 8.568 10.097-0.52c0.127-0.007 0.194 0.07 0.202 0.23v0l0.289 5.603c0.007 0.127-0.053 0.193-0.18 0.199zM118.441 6.645v0l-5.528 0.153c-0.147 0.004-0.222-0.074-0.226-0.233v0l-0.776-27.98-6.368 0.177c-0.16 0.004-0.242-0.073-0.246-0.233v0l-0.103-5.49c-0.004-0.127 0.058-0.192 0.185-0.195v0l18.633-0.516c0.18-0.005 0.272 0.056 0.275 0.182v0l0.152 5.488c0.004 0.16-0.057 0.242-0.183 0.245v0l-6.447 0.179 0.825 27.978c0.004 0.16-0.06 0.242-0.193 0.245zM135.314 6.87v0c-1.773 0.013-3.4-0.421-4.88-1.303v0c-1.46-0.882-2.622-2.077-3.488-3.584-0.865-1.5-1.304-3.177-1.318-5.03v0l-0.076-15.32c-0.014-1.82 0.39-3.47 1.213-4.949v0c0.822-1.493 1.96-2.695 3.412-3.606 1.453-0.911 3.076-1.373 4.87-1.387v0c1.82-0.014 3.443 0.411 4.87 1.273v0c1.447 0.869 2.602 2.047 3.467 3.534 0.865 1.487 1.304 3.15 1.318 4.99v0l0.017 2.25c0.001 0.133-0.062 0.2-0.189 0.201v0l-5.51 0.042c-0.127 0.001-0.191-0.065-0.191-0.198v0l-0.017-2.25c-0.008-1.087-0.369-2.017-1.081-2.792-0.706-0.781-1.586-1.168-2.639-1.16v0c-1.167 0.009-2.06 0.416-2.681 1.22-0.614 0.805-0.917 1.734-0.909 2.787v0l0.116 15.32c0.009 1.193 0.366 2.167 1.072 2.922 0.712 0.755 1.572 1.128 2.579 1.12v0c1.053-0.008 1.927-0.435 2.62-1.28 0.7-0.845 1.046-1.785 1.039-2.818v0l-0.017-2.28c-0.001-0.127 0.062-0.19 0.188-0.191v0l5.56-0.042c0.127-0.001 0.19 0.062 0.191 0.188v0l0.018 2.28c0.014 1.833-0.403 3.513-1.252 5.04v0c-0.869 1.507-2.019 2.719-3.453 3.636-1.433 0.911-3.05 1.373-4.849 1.387zM157.148 6.999v0c-1.74-0.029-3.336-0.501-4.787-1.418v0c-1.438-0.917-2.589-2.133-3.451-3.647-0.862-1.508-1.278-3.155-1.249-4.942v0l0.295-15.557c0.03-1.82 0.497-3.449 1.4-4.888v0c0.891-1.452 2.076-2.61 3.557-3.472 1.488-0.862 3.091-1.28 4.811-1.251v0c1.793 0.029 3.392 0.492 4.798 1.389v0c1.425 0.903 2.563 2.102 3.412 3.596 0.842 1.494 1.249 3.141 1.219 4.941v0l-0.205 15.558c-0.029 1.786-0.486 3.416-1.37 4.889v0c-0.905 1.492-2.091 2.673-3.559 3.542-1.474 0.869-3.098 1.289-4.871 1.26zM157.245 1.08v0c0.993 0.016 1.863-0.373 2.61-1.167 0.753-0.794 1.138-1.695 1.154-2.702v0l0.205-15.559c0.018-1.087-0.31-2.009-0.985-2.766-0.674-0.764-1.541-1.155-2.601-1.173v0c-1.007-0.016-1.872 0.336-2.598 1.058-0.732 0.728-1.107 1.649-1.125 2.762v0l-0.255 15.558c-0.017 1.067 0.327 1.996 1.034 2.787 0.701 0.785 1.554 1.186 2.561 1.202zM175.786 7.054v0l-5.555-0.234c-0.127-0.005-0.186-0.088-0.18-0.248v0l1.52-33.685c0.005-0.127 0.071-0.187 0.198-0.182v0l5.984 0.252c0.127 0.005 0.237 0.073 0.332 0.204v0l4.204 6.653 4.728-6.276c0.099-0.123 0.221-0.181 0.368-0.175v0l6.005 0.253c0.147 0.006 0.217 0.073 0.211 0.199v0l-1.33 33.694c-0.007 0.16-0.073 0.237-0.2 0.232v0l-5.555-0.234c-0.127-0.005-0.186-0.088-0.179-0.248v0l1.004-25.02-5.46 7.246-4.791-7.678-1.094 25.016c-0.007 0.16-0.077 0.237-0.21 0.231zM201.628 8.403v0l-5.496-0.38c-0.16-0.011-0.234-0.096-0.223-0.256v0l2.425-33.633c0.009-0.126 0.076-0.185 0.203-0.177v0l9.417 0.651c3 0.207 5.308 1.282 6.924 3.226 1.623 1.95 2.326 4.494 2.109 7.633v0c-0.159 2.295-0.752 4.262-1.781 5.901v0c-1.041 1.625-2.325 2.85-3.853 3.673-1.534 0.823-3.162 1.175-4.884 1.056v0l-3.731-0.258-0.854 12.341c-0.011 0.16-0.096 0.234-0.256 0.223zM207.553-19.585v0l-3.735-0.209-0.671 9.707 3.731 0.258c1.038 0.072 1.973-0.365 2.807-1.309 0.834-0.945 1.306-2.212 1.416-3.802v0c0.088-1.277-0.182-2.348-0.81-3.213-0.628-0.872-1.541-1.349-2.738-1.432zM213.817 9.012v0l9.114-33.031c0.038-0.124 0.12-0.18 0.246-0.168v0l7.091 0.643c0.126 0.011 0.2 0.082 0.222 0.211v0l2.777 34.111c-0.001 0.161-0.071 0.234-0.211 0.222v0l-5.418-0.492c-0.159-0.014-0.242-0.102-0.247-0.263v0l-0.193-3.623-6.663-0.605-0.852 3.528c-0.028 0.158-0.115 0.231-0.261 0.217v0l-5.438-0.494c-0.126-0.011-0.182-0.097-0.167-0.256zM226.686 1.304l-0.755-13.905-0.123-1.849-0.375 1.804-3.447 13.523zM244.145 12.732v0c-1.729-0.196-3.275-0.821-4.638-1.875v0c-1.343-1.051-2.361-2.371-3.053-3.959-0.699-1.582-0.948-3.261-0.747-5.037v0l0.253-2.235c0.02-0.179 0.11-0.259 0.269-0.241v0l5.475 0.621c0.126 0.014 0.179 0.111 0.158 0.289v0l-0.253 2.236c-0.12 1.06 0.133 2.018 0.761 2.874 0.628 0.85 1.442 1.331 2.442 1.445v0c1.02 0.116 1.929-0.18 2.728-0.888 0.804-0.7 1.265-1.567 1.382-2.601v0c0.135-1.192-0.525-2.321-1.981-3.385v0c-0.234-0.188-0.539-0.42-0.917-0.698-0.378-0.278-0.828-0.597-1.351-0.958v0c-0.522-0.368-1.028-0.727-1.518-1.078-0.49-0.351-0.965-0.69-1.425-1.017v0c-1.663-1.249-2.835-2.714-3.517-4.395-0.689-1.675-0.922-3.496-0.698-5.464v0c0.206-1.815 0.835-3.401 1.888-4.757v0c1.051-1.343 2.344-2.357 3.878-3.042 1.534-0.691 3.143-0.942 4.825-0.751v0c1.729 0.196 3.27 0.807 4.623 1.833v0c1.345 1.038 2.366 2.328 3.063 3.87 0.704 1.543 0.954 3.211 0.751 5.006v0l-0.453 3.995c-0.014 0.126-0.084 0.182-0.211 0.167v0l-5.484-0.622c-0.126-0.014-0.182-0.084-0.168-0.21v0l0.404-4c0.13-1.146-0.119-2.117-0.747-2.913-0.634-0.797-1.445-1.251-2.431-1.363v0c-1-0.113-1.901 0.17-2.704 0.851-0.802 0.681-1.263 1.548-1.382 2.6v0c-0.12 1.06 0.008 1.973 0.384 2.741 0.369 0.767 1.12 1.543 2.252 2.329v0c0.118 0.081 0.395 0.273 0.83 0.577 0.429 0.304 0.907 0.643 1.434 1.018 0.534 0.376 1.016 0.712 1.446 1.01 0.436 0.298 0.698 0.475 0.785 0.532v0c1.513 1.091 2.669 2.349 3.466 3.774 0.798 1.426 1.088 3.099 0.87 5.021v0c-0.21 1.855-0.83 3.472-1.859 4.851v0c-1.042 1.378-2.334 2.416-3.876 3.113-1.541 0.691-3.193 0.936-4.954 0.736zM264.953 15.351v0c-1.724-0.236-3.255-0.896-4.594-1.981v0c-1.319-1.082-2.306-2.425-2.961-4.029-0.663-1.598-0.873-3.282-0.631-5.052v0l0.305-2.229c0.024-0.178 0.116-0.257 0.275-0.235v0l5.459 0.747c0.126 0.017 0.176 0.115 0.151 0.293v0l-0.305 2.229c-0.145 1.057 0.087 2.02 0.695 2.891 0.608 0.864 1.411 1.364 2.409 1.501v0c1.017 0.139 1.933-0.136 2.747-0.825 0.82-0.682 1.301-1.538 1.441-2.569v0c0.163-1.189-0.471-2.332-1.902-3.429v0c-0.229-0.193-0.53-0.432-0.901-0.719-0.371-0.286-0.814-0.616-1.328-0.989v0c-0.513-0.38-1.011-0.751-1.493-1.113-0.482-0.362-0.949-0.712-1.401-1.05v0c-1.634-1.287-2.772-2.778-3.414-4.474-0.65-1.69-0.841-3.517-0.573-5.478v0c0.248-1.81 0.913-3.381 1.997-4.713v0c1.082-1.319 2.398-2.303 3.947-2.952 1.55-0.656 3.164-0.869 4.842-0.639v0c1.724 0.236 3.25 0.882 4.579 1.939v0c1.321 1.069 2.312 2.382 2.973 3.939 0.668 1.558 0.88 3.232 0.635 5.023v0l-0.545 3.982c-0.017 0.126-0.089 0.18-0.214 0.163v0l-5.469-0.749c-0.126-0.017-0.18-0.089-0.162-0.214v0l0.495-3.989c0.156-1.143-0.07-2.119-0.679-2.929-0.616-0.811-1.416-1.284-2.4-1.419v0c-0.997-0.137-1.905 0.126-2.722 0.788-0.817 0.662-1.298 1.518-1.441 2.569v0c-0.145 1.057-0.038 1.973 0.32 2.748 0.352 0.775 1.084 1.568 2.197 2.38v0c0.116 0.083 0.389 0.282 0.817 0.597 0.421 0.313 0.892 0.664 1.411 1.051 0.526 0.388 0.999 0.736 1.422 1.042 0.429 0.308 0.686 0.491 0.772 0.55v0c1.488 1.125 2.614 2.41 3.379 3.853 0.765 1.444 1.016 3.123 0.753 5.039v0c-0.253 1.849-0.91 3.452-1.97 4.807v0c-1.073 1.354-2.389 2.361-3.946 3.023-1.557 0.655-3.213 0.862-4.97 0.622z" opacity="1" transform="matrix(1,0,0,1,0,0)" fill="#ffffff" class="wordmark-text-0" data-fill-palette-color="primary" id="text-0"></path></svg></g></svg></g><g transform="matrix(1,0,0,1,114.20639999999997,68.08055283960033)"><svg viewBox="0 0 167.10720000000003 17.36336077903243" height="17.36336077903243" width="167.10720000000003"><g transform="matrix(1,0,0,1,0,0)"><svg width="167.10720000000003" viewBox="3.25 -39.45 482.6 50.150000000000006" height="17.36336077903243" data-palette-color="#0063db"><path d="M7.75-36.8L18.9-36.8Q22.05-36.8 24.43-36.05 26.8-35.3 28.4-33.85 30-32.4 30.83-30.43 31.65-28.45 31.65-25.95L31.65-25.95Q31.65-23.55 30.88-21.05 30.1-18.55 28.4-16.43 26.7-14.3 23.93-12.98 21.15-11.65 17.15-11.65L17.15-11.65 12.2-11.65 10.75 0 3.25 0 7.75-36.8ZM13.05-18.7L17.7-18.7Q19.5-18.7 20.7-19.35 21.9-20 22.65-21 23.4-22 23.73-23.05 24.05-24.1 24.05-24.9L24.05-24.9Q24.05-25.75 23.7-26.9 23.35-28.05 22.3-28.93 21.25-29.8 19.1-29.8L19.1-29.8 14.4-29.8 13.05-18.7ZM33.2 0L38-39.45 45-39.45 40.2 0 33.2 0ZM55.95 0.5L55.95 0.5Q53.8 0.55 51.75-0.7 49.7-1.95 48.37-4.35 47.05-6.75 47.05-10.15L47.05-10.15Q47.05-12.6 47.95-14.88 48.85-17.15 50.5-18.98 52.15-20.8 54.4-21.88 56.65-22.95 59.35-22.95L59.35-22.95Q61.55-22.95 62.92-22.45 64.3-21.95 65.15-21.18 66-20.4 66.59-19.5L66.59-19.5 66.15-18.45 67.25-21.85 73.75-21.85 71.09 0 64.09 0 64.65-4.75 65.05-3.25Q64.95-3.25 64.34-2.68 63.75-2.1 62.62-1.35 61.5-0.6 59.82-0.03 58.15 0.55 55.95 0.5ZM59.9-5.1L59.9-5.1Q60.9-5.1 61.82-5.48 62.75-5.85 63.59-6.58 64.45-7.3 65.09-8.4L65.09-8.4 65.75-13.75Q65.5-14.85 64.8-15.63 64.09-16.4 63.05-16.82 62-17.25 60.65-17.25L60.65-17.25Q58.95-17.25 57.75-16.65 56.55-16.05 55.77-15.1 55-14.15 54.65-13.08 54.3-12 54.3-11L54.3-11Q54.3-9.2 55-7.88 55.7-6.55 56.97-5.83 58.25-5.1 59.9-5.1ZM80.99-21.85L87.34-21.85 87.49-17.5 87.24-18.3Q88.64-20.35 90.97-21.63 93.29-22.9 96.34-22.9L96.34-22.9Q99.44-22.9 101.27-21.08 103.09-19.25 102.84-16.35L102.84-16.35 100.84 0 93.84 0 95.54-13.75Q95.64-15.2 95.02-16.07 94.39-16.95 92.69-16.95L92.69-16.95Q91.09-16.95 89.77-15.9 88.44-14.85 87.59-13.05 86.74-11.25 86.44-8.9L86.44-8.9 85.34 0 78.34 0 80.99-21.85ZM108.39 10.7L108.39 10.7 104.79 8.3Q105.89 7.25 106.37 5.23 106.84 3.2 106.49 1.45L106.49 1.45 112.59 1.5Q112.89 2.9 112.42 4.67 111.94 6.45 110.92 8.08 109.89 9.7 108.39 10.7ZM138.79-36.8L149.94-36.8Q153.09-36.8 155.46-36.05 157.84-35.3 159.44-33.85 161.04-32.4 161.86-30.43 162.69-28.45 162.69-25.95L162.69-25.95Q162.69-23.55 161.91-21.05 161.14-18.55 159.44-16.43 157.74-14.3 154.96-12.98 152.19-11.65 148.19-11.65L148.19-11.65 143.24-11.65 141.79 0 134.29 0 138.79-36.8ZM144.09-18.7L148.74-18.7Q150.54-18.7 151.74-19.35 152.94-20 153.69-21 154.44-22 154.76-23.05 155.09-24.1 155.09-24.9L155.09-24.9Q155.09-25.75 154.74-26.9 154.39-28.05 153.34-28.93 152.29-29.8 150.14-29.8L150.14-29.8 145.44-29.8 144.09-18.7ZM172.73 0.5L172.73 0.5Q170.58 0.55 168.53-0.7 166.48-1.95 165.16-4.35 163.83-6.75 163.83-10.15L163.83-10.15Q163.83-12.6 164.73-14.88 165.63-17.15 167.28-18.98 168.93-20.8 171.18-21.88 173.43-22.95 176.13-22.95L176.13-22.95Q178.33-22.95 179.71-22.45 181.08-21.95 181.93-21.18 182.78-20.4 183.38-19.5L183.38-19.5 182.93-18.45 184.03-21.85 190.53-21.85 187.88 0 180.88 0 181.43-4.75 181.83-3.25Q181.73-3.25 181.13-2.68 180.53-2.1 179.41-1.35 178.28-0.6 176.61-0.03 174.93 0.55 172.73 0.5ZM176.68-5.1L176.68-5.1Q177.68-5.1 178.61-5.48 179.53-5.85 180.38-6.58 181.23-7.3 181.88-8.4L181.88-8.4 182.53-13.75Q182.28-14.85 181.58-15.63 180.88-16.4 179.83-16.82 178.78-17.25 177.43-17.25L177.43-17.25Q175.73-17.25 174.53-16.65 173.33-16.05 172.56-15.1 171.78-14.15 171.43-13.08 171.08-12 171.08-11L171.08-11Q171.08-9.2 171.78-7.88 172.48-6.55 173.76-5.83 175.03-5.1 176.68-5.1ZM195.08 0L197.78-21.85 204.78-21.85 202.08 0 195.08 0ZM198.23-29.55L198.23-29.55Q198.23-31.15 199.33-32.25 200.43-33.35 202.23-33.35L202.23-33.35Q203.48-33.35 204.73-32.63 205.98-31.9 205.98-30.1L205.98-30.1Q205.98-28.55 204.88-27.43 203.78-26.3 201.98-26.3L201.98-26.3Q200.73-26.3 199.48-27.03 198.23-27.75 198.23-29.55ZM211.98-21.85L218.28-21.85 218.08-17Q219.28-18.95 220.95-20.28 222.63-21.6 224.35-22.28 226.08-22.95 227.28-22.95L227.28-22.95 226.08-15.95Q223.68-16.25 221.78-15.15 219.88-14.05 218.73-12.25 217.58-10.45 217.33-8.55L217.33-8.55 216.28 0 209.33 0 211.98-21.85ZM230.33 10.7L230.33 10.7 226.73 8.3Q227.83 7.25 228.3 5.23 228.78 3.2 228.43 1.45L228.43 1.45 234.53 1.5Q234.83 2.9 234.35 4.67 233.88 6.45 232.85 8.08 231.83 9.7 230.33 10.7ZM263.77 0.5L263.77 0.5Q261.62 0.55 259.57-0.7 257.52-1.95 256.2-4.35 254.87-6.75 254.87-10.15L254.87-10.15Q254.87-12.6 255.77-14.88 256.67-17.15 258.32-18.98 259.97-20.8 262.22-21.88 264.47-22.95 267.17-22.95L267.17-22.95Q269.37-22.95 270.75-22.45 272.12-21.95 272.97-21.18 273.82-20.4 274.42-19.5L274.42-19.5 273.97-18.45 275.07-21.85 281.57-21.85 278.92 0 271.92 0 272.47-4.75 272.87-3.25Q272.77-3.25 272.17-2.68 271.57-2.1 270.45-1.35 269.32-0.6 267.65-0.03 265.97 0.55 263.77 0.5ZM267.72-5.1L267.72-5.1Q268.72-5.1 269.65-5.48 270.57-5.85 271.42-6.58 272.27-7.3 272.92-8.4L272.92-8.4 273.57-13.75Q273.32-14.85 272.62-15.63 271.92-16.4 270.87-16.82 269.82-17.25 268.47-17.25L268.47-17.25Q266.77-17.25 265.57-16.65 264.37-16.05 263.6-15.1 262.82-14.15 262.47-13.08 262.12-12 262.12-11L262.12-11Q262.12-9.2 262.82-7.88 263.52-6.55 264.8-5.83 266.07-5.1 267.72-5.1ZM288.82-21.85L295.17-21.85 295.32-17.5 295.07-18.3Q296.47-20.35 298.79-21.63 301.12-22.9 304.17-22.9L304.17-22.9Q307.27-22.9 309.09-21.08 310.92-19.25 310.67-16.35L310.67-16.35 308.67 0 301.67 0 303.37-13.75Q303.47-15.2 302.84-16.07 302.22-16.95 300.52-16.95L300.52-16.95Q298.92-16.95 297.59-15.9 296.27-14.85 295.42-13.05 294.57-11.25 294.27-8.9L294.27-8.9 293.17 0 286.17 0 288.82-21.85ZM326.26 0.6L326.26 0.6Q323.17 0.6 320.72-0.85 318.26-2.3 316.89-4.73 315.51-7.15 315.51-10L315.51-10Q315.51-12.3 316.34-14.58 317.17-16.85 318.84-18.75 320.51-20.65 322.97-21.8 325.42-22.95 328.62-22.95L328.62-22.95Q331.26-22.95 333.31-22 335.37-21.05 336.47-19.7L336.47-19.7 335.26-18.1 337.87-39.45 344.81-39.45 339.97 0 332.97 0 333.51-4.25 333.87-2.75Q332.01-1.35 330.24-0.38 328.47 0.6 326.26 0.6ZM328.47-5.3L328.47-5.3Q329.56-5.3 330.54-5.68 331.51-6.05 332.42-6.78 333.31-7.5 334.06-8.6L334.06-8.6 334.72-13.95Q334.47-15.05 333.72-15.83 332.97-16.6 331.84-17.03 330.72-17.45 329.31-17.45L329.31-17.45Q327.37-17.45 325.87-16.68 324.37-15.9 323.54-14.48 322.72-13.05 322.72-11.05L322.72-11.05Q322.72-9.3 323.42-8 324.12-6.7 325.42-6 326.72-5.3 328.47-5.3ZM374.96 1.7L364.86-36.55 373.36-36.55 378.36-13.45 377.26-13.95 386.21-31 388.36-21.05 374.96 1.7ZM393.91 1.6L383.31-36.55 390.51-36.55 396.81-14.2 395.56-14.4 405.01-36.55 412.81-36.55 393.91 1.6ZM421.61-5.35L421.61-5.35Q422.61-5.35 423.53-5.7 424.46-6.05 425.41-6.55L425.41-6.55 427.86-1.15Q426.21-0.35 424.38 0.1 422.56 0.55 420.86 0.55L420.86 0.55Q417.26 0.55 414.58-0.68 411.91-1.9 410.41-4.42 408.91-6.95 408.91-10.75L408.91-10.75Q408.91-12.7 409.63-14.8 410.36-16.9 411.88-18.73 413.41-20.55 415.88-21.7 418.36-22.85 421.86-22.85L421.86-22.85Q423.76-22.85 425.63-22.38 427.51-21.9 429.08-20.68 430.66-19.45 431.78-17.25 432.91-15.05 433.36-11.55L433.36-11.55 415.76-7.2 414.66-11.1 428.36-14.65 425.91-13.9Q425.51-15.6 424.33-16.5 423.16-17.4 421.61-17.4L421.61-17.4Q419.56-17.4 418.31-16.55 417.06-15.7 416.48-14.35 415.91-13 415.91-11.55L415.91-11.55Q415.91-9.05 416.83-7.7 417.76-6.35 419.08-5.85 420.41-5.35 421.61-5.35ZM445.51 0.5L445.51 0.5Q443.36 0.55 441.31-0.7 439.26-1.95 437.93-4.35 436.61-6.75 436.61-10.15L436.61-10.15Q436.61-12.6 437.51-14.88 438.41-17.15 440.06-18.98 441.71-20.8 443.96-21.88 446.21-22.95 448.91-22.95L448.91-22.95Q451.11-22.95 452.48-22.45 453.86-21.95 454.71-21.18 455.56-20.4 456.16-19.5L456.16-19.5 455.71-18.45 456.81-21.85 463.31-21.85 460.66 0 453.66 0 454.21-4.75 454.61-3.25Q454.51-3.25 453.91-2.68 453.31-2.1 452.18-1.35 451.06-0.6 449.38-0.03 447.71 0.55 445.51 0.5ZM449.46-5.1L449.46-5.1Q450.46-5.1 451.38-5.48 452.31-5.85 453.16-6.58 454.01-7.3 454.66-8.4L454.66-8.4 455.31-13.75Q455.06-14.85 454.36-15.63 453.66-16.4 452.61-16.82 451.56-17.25 450.21-17.25L450.21-17.25Q448.51-17.25 447.31-16.65 446.11-16.05 445.33-15.1 444.56-14.15 444.21-13.08 443.86-12 443.86-11L443.86-11Q443.86-9.2 444.56-7.88 445.26-6.55 446.53-5.83 447.81-5.1 449.46-5.1ZM470.55-21.85L476.85-21.85 476.65-17Q477.85-18.95 479.53-20.28 481.2-21.6 482.93-22.28 484.65-22.95 485.85-22.95L485.85-22.95 484.65-15.95Q482.25-16.25 480.35-15.15 478.45-14.05 477.3-12.25 476.15-10.45 475.9-8.55L475.9-8.55 474.85 0 467.9 0 470.55-21.85Z" opacity="1" transform="matrix(1,0,0,1,0,0)" fill="#ffffff" class="slogan-text-1" data-fill-palette-color="secondary" id="text-1"></path></svg></g></svg></g></svg></g></svg></g><g transform="matrix(1,0,0,1,153.4499618203095,0)"><svg viewBox="0 0 88.62007635938096 123.04094448910354" height="123.04094448910354" width="88.62007635938096"><g><svg xmlns="http://www.w3.org/2000/svg" xmlns:xlink="http://www.w3.org/1999/xlink" version="1.1" x="0" y="0" viewBox="11.799999999999997 9.3 81.10000000000001 112.60000000000001" enable-background="new 0 0 108.3 129.2" xml:space="preserve" height="123.04094448910354" width="88.62007635938096" class="icon-icon-0" data-fill-palette-color="accent" id="icon-0"><g fill="#d90000" data-fill-palette-color="accent"><g fill="#d90000" data-fill-palette-color="accent"><g fill="#d90000" data-fill-palette-color="accent"><g fill="#d90000" data-fill-palette-color="accent"><path fill="#ffffff" d="M71 121.4c-4 0-7.2-1.5-8.9-2.9l-0.3-0.3L50.2 106l3.8-3.6 11.4 12.1c0.9 0.6 6.3 4 12.9-1 2-1.5 3.1-3.2 3.3-5 0.3-3.2-2.1-6.1-2.2-6.1l-13.6-14 3.8-3.7 13.6 14.1c0.2 0.3 4.1 4.7 3.5 10.2-0.3 3.4-2.1 6.3-5.4 8.7C77.8 120.5 74.2 121.4 71 121.4z" data-fill-palette-color="accent"></path></g></g></g><g fill="#d90000" data-fill-palette-color="accent"><g fill="#d90000" data-fill-palette-color="accent"><g fill="#d90000" data-fill-palette-color="accent"><path fill="#ffffff" d="M72 109.4c-0.5 0-0.9-0.2-1.3-0.5l-12.4-13c-0.7-0.7-0.6-1.8 0.1-2.5 0.7-0.7 1.8-0.6 2.5 0.1l12.4 13c0.7 0.7 0.6 1.8-0.1 2.5C72.8 109.2 72.4 109.4 72 109.4z" data-fill-palette-color="accent"></path></g></g></g><g fill="#d90000" data-fill-palette-color="accent"><g fill="#d90000" data-fill-palette-color="accent"><g fill="#d90000" data-fill-palette-color="accent"><path fill="#ffffff" d="M30.1 109.7c-0.4 0-0.9-0.2-1.2-0.5-0.7-0.7-0.7-1.8 0-2.5L67.8 67c1.8-1.6 6.5-6 7.7-7.8 1.7-2.5 1.8-6 1.8-9.4C77.2 36.1 66.1 25 52.4 25S27.6 36.1 27.6 49.8c0 5.3 1 9.2 3 12 3 4.1 14.2 14.9 14.3 15 0.7 0.7 0.7 1.8 0 2.5-0.7 0.7-1.8 0.7-2.5 0C42 78.8 31 68.2 27.8 63.9c-2.5-3.4-3.7-8-3.7-14 0-15.6 12.7-28.3 28.3-28.3s28.3 12.7 28.3 28.3c0 3.9-0.2 8-2.4 11.3-1.6 2.5-7.5 7.8-8.2 8.4l-38.8 39.6C31 109.5 30.5 109.7 30.1 109.7z" data-fill-palette-color="accent"></path></g></g></g><g fill="#d90000" data-fill-palette-color="accent"><g fill="#d90000" data-fill-palette-color="accent"><g fill="#d90000" data-fill-palette-color="accent"><path fill="#ffffff" d="M30.6 121.9c-3 0-6.2-0.9-9.5-3.4-3.2-2.5-5.1-5.4-5.5-8.8-0.7-5.5 2.8-10 2.9-10.2l0.2-0.3 13.1-12.7-5-5.3c-9.5-7.7-15-19.2-15-31.5C11.9 27.5 30 9.3 52.4 9.3s40.5 18.2 40.5 40.5c0 13.6-5.3 25-14.9 32.2l-36.6 35.7C39.3 119.7 35.3 121.9 30.6 121.9zM22.6 102.9c-0.4 0.6-2.1 3.3-1.7 6.2 0.3 1.9 1.4 3.7 3.5 5.3 7 5.3 13.2-0.2 13.4-0.4l37-36c8.4-6.2 12.9-15.9 12.9-28.1 0-19.4-15.8-35.3-35.3-35.3S17.1 30.4 17.1 49.8c0 10.7 4.8 20.8 13.2 27.5l0.3 0.2 5.1 5.4 12.9-12.5-10.6-11c-1.9-2.9-3-6.2-3-9.7 0-9.5 7.8-17.3 17.3-17.3s17.3 7.8 17.3 17.3c0 3.5-1 6.8-3 9.7l-0.3 0.4-10.6 11L22.6 102.9zM42.3 56.4l10.1 10.4 10.1-10.4c1.3-1.9 1.9-4.2 1.9-6.5 0-6.6-5.4-12-12-12s-12 5.4-12 12C40.4 52.2 41 54.4 42.3 56.4z" data-fill-palette-color="accent"></path></g></g></g></g></svg></g></svg></g><g></g></svg></g><defs></defs></svg><rect width="395.52" height="226.94524984157619" fill="none" stroke="none" visibility="hidden"></rect></g></svg></g></svg>